HIERARCHY
ROOT Hips
{
	OFFSET -32.860001 56.121803 44.745396
	CHANNELS 6 Xposition Yposition Zposition Zrotation Xrotation Yrotation
	JOINT Chest
	{
		OFFSET -0.637402 0.831600 5.390099
		CHANNELS 6 Xposition Yposition Zposition Zrotation Xrotation Yrotation
		JOINT Chest2
		{
			OFFSET 0.000000 0.000000 4.429901
			CHANNELS 6 Xposition Yposition Zposition Zrotation Xrotation Yrotation
			JOINT Neck
			{
				OFFSET 0.000000 0.000000 10.301395
				CHANNELS 6 Xposition Yposition Zposition Zrotation Xrotation Yrotation
				JOINT Head
				{
					OFFSET 0.000000 0.000000 2.173897
					CHANNELS 6 Xposition Yposition Zposition Zrotation Xrotation Yrotation
					End Site
					{
						OFFSET 0.000000 0.000000 8.298004
					}
				}
			}
			JOINT LeftCollar
			{
				OFFSET 2.142401 -0.572701 5.717800
				CHANNELS 6 Xposition Yposition Zposition Zrotation Xrotation Yrotation
				JOINT LeftShoulder
				{
					OFFSET 5.674000 0.000000 0.000000
					CHANNELS 6 Xposition Yposition Zposition Zrotation Xrotation Yrotation
					JOINT LeftElbow
					{
						OFFSET 0.000000 0.000000 -12.238701
						CHANNELS 6 Xposition Yposition Zposition Zrotation Xrotation Yrotation
						JOINT LeftWrist
						{
							OFFSET 0.000000 0.000000 -10.253700
							CHANNELS 6 Xposition Yposition Zposition Zrotation Xrotation Yrotation
							End Site
							{
								OFFSET 0.000000 0.000000 -2.173901
							}
						}
					}
				}
			}
			JOINT RightCollar
			{
				OFFSET -2.882599 -1.580101 6.695801
				CHANNELS 6 Xposition Yposition Zposition Zrotation Xrotation Yrotation
				JOINT RightShoulder
				{
					OFFSET -4.235600 0.000000 0.000000
					CHANNELS 6 Xposition Yposition Zposition Zrotation Xrotation Yrotation
					JOINT RightElbow
					{
						OFFSET 0.000000 0.000000 -10.709900
						CHANNELS 6 Xposition Yposition Zposition Zrotation Xrotation Yrotation
						JOINT RightWrist
						{
							OFFSET 0.000000 0.000000 -11.716801
							CHANNELS 6 Xposition Yposition Zposition Zrotation Xrotation Yrotation
							End Site
							{
								OFFSET 0.000000 0.000000 -2.173901
							}
						}
					}
				}
			}
		}
	}
	JOINT LeftHip
	{
		OFFSET 2.279499 0.210400 -2.475502
		CHANNELS 6 Xposition Yposition Zposition Zrotation Xrotation Yrotation
		JOINT LeftKnee
		{
			OFFSET 0.000000 -0.000004 -20.742800
			CHANNELS 6 Xposition Yposition Zposition Zrotation Xrotation Yrotation
			JOINT LeftAnkle
			{
				OFFSET 0.000000 0.000000 -16.666000
				CHANNELS 6 Xposition Yposition Zposition Zrotation Xrotation Yrotation
				End Site
				{
					OFFSET 0.000000 -8.310898 0.000000
				}
			}
		}
	}
	JOINT RightHip
	{
		OFFSET -1.961899 0.232300 -2.727402
		CHANNELS 6 Xposition Yposition Zposition Zrotation Xrotation Yrotation
		JOINT RightKnee
		{
			OFFSET 0.000000 -0.000004 -20.526800
			CHANNELS 6 Xposition Yposition Zposition Zrotation Xrotation Yrotation
			JOINT RightAnkle
			{
				OFFSET 0.000000 0.000000 -16.867300
				CHANNELS 6 Xposition Yposition Zposition Zrotation Xrotation Yrotation
				End Site
				{
					OFFSET 0.000000 -7.186401 0.000000
				}
			}
		}
	}
}
MOTION
Frames: 8
Frame Time: 0.041667
58.213600 53.637001 45.371891 2019.905066 8.345351 10.395193 -0.637411 0.831596 5.390102 -5.390742 -2.146704 6.067165 -0.000006 -0.000003 4.429894 -0.561002 -0.850201 -0.045024 -0.000004 -0.000015 10.301405 416.149766 2.712972 -10.184037 0.000003 0.000002 2.173898 -357.114938 3.581056 3.891030 2.142394 -0.572709 5.717806 7.328572 -9.106265 -11.837444 5.673996 -0.000002 -0.000005 -11.922153 -716.098070 278.641829 0.000008 0.000002 -12.238708 -805.315530 32.870395 -106.426485 0.000007 -0.000010 -10.253702 303.154695 7.231570 -31.231825 -2.882607 -1.580101 6.695806 -3.139957 -8.278925 30.550934 -4.235610 -0.000008 -0.000004 -1461.933909 -60.251435 -647.072834 0.000010 0.000004 -10.709908 119.099183 -157.718371 149.610991 0.000000 -0.000006 -11.716810 -880.305489 -3.672978 -42.744485 2.279493 0.210405 -2.475494 401.850546 -34.247719 2.252373 0.000003 -0.000005 -20.742800 -381.485381 32.731516 -4.063928 -0.000003 0.000000 -16.665998 357.194469 25.874725 12.135177 -1.961900 0.232300 -2.727394 -1080.235836 -2.781130 10.185136 -0.000011 0.000000 -20.526798 889.570504 151.920633 -183.149815 -0.000013 0.000006 -16.867302 16.528387 50.172644 -18.890503
58.499306 53.616302 45.352791 2020.516396 8.573476 10.489560 -0.637404 0.831604 5.390103 -5.201239 -1.663231 6.046277 -0.000005 -0.000001 4.429908 -0.863841 -0.955535 -0.058001 -0.000011 0.000003 10.301397 415.810497 2.599850 -9.899362 -0.000001 -0.000003 2.173906 -357.128817 3.491645 3.891193 2.142391 -0.572699 5.717800 8.555579 -6.512193 -11.745415 5.673992 0.000002 0.000010 -13.021164 -719.341098 278.218412 0.000007 -0.000000 -12.238703 -806.001500 32.734839 -105.855959 0.000007 0.000003 -10.253702 302.690543 7.426159 -31.224787 -2.882611 -1.580092 6.695796 -3.033078 -8.642304 30.551402 -4.235607 0.000003 -0.000011 -1462.068545 -59.928913 -647.592092 -0.000001 0.000002 -10.709909 118.853187 -157.772220 148.949897 -0.000008 -0.000004 -11.716814 -879.679406 -3.693836 -43.001806 2.279490 0.210405 -2.475500 403.435205 -35.218508 3.447059 -0.000003 -0.000010 -20.742802 -382.575097 33.335667 -3.927699 0.000000 0.000005 -16.666000 356.755342 26.141545 11.880744 -1.961905 0.232309 -2.727403 -1079.504623 -2.499665 9.647662 0.000008 -0.000002 -20.526802 889.274237 152.228907 -183.813887 -0.000002 -0.000006 -16.867302 13.222837 49.277137 -16.937221
58.814606 53.589294 45.328487 2021.126851 8.913055 10.558872 -0.637399 0.831603 5.390098 -5.338971 -1.331180 6.048241 0.000007 -0.000004 4.429898 -0.910384 -1.106645 -0.075180 0.000015 0.000002 10.301397 415.673073 2.505421 -9.697848 -0.000006 -0.000013 2.173900 -357.127396 3.429212 3.939286 2.142409 -0.572697 5.717803 8.161595 -6.865782 -11.628302 5.674005 0.000004 -0.000003 -13.119792 -719.324268 278.206446 0.000000 0.000000 -12.238703 -806.687251 32.917113 -105.273528 0.000006 0.000000 -10.253695 302.565632 7.574073 -31.241722 -2.882589 -1.580097 6.695792 -2.863356 -8.506518 30.269971 -4.235611 -0.000003 -0.000001 -1462.245147 -60.359427 -648.141785 0.000003 -0.000004 -10.709923 119.694216 -157.317111 148.748392 -0.000008 -0.000011 -11.716808 -880.235821 -3.756064 -42.914270 2.279501 0.210403 -2.475499 406.049309 -36.274913 5.376399 0.000000 -0.000010 -20.742798 -383.506243 33.910530 -4.167365 -0.000001 -0.000003 -16.666000 355.410068 26.551823 11.940745 -1.961893 0.232299 -2.727407 -1079.554893 -2.691420 9.064131 0.000008 -0.000013 -20.526800 888.924641 152.271554 -184.128404 0.000003 -0.000002 -16.867298 10.372314 48.475570 -14.790324
59.135620 53.567802 45.307884 2021.789324 9.308902 10.581351 -0.637407 0.831596 5.390091 -5.324393 -1.068654 6.168829 0.000005 0.000001 4.429905 -1.008740 -1.172877 -0.085447 0.000001 0.000002 10.301407 415.489041 2.299282 -9.681359 -0.000001 -0.000006 2.173904 -357.235860 3.493264 3.994313 2.142402 -0.572699 5.717808 7.527084 -7.240072 -11.647346 5.674006 0.000005 -0.000003 -13.229349 -719.318258 278.371244 0.000007 0.000007 -12.238706 -807.515015 32.958286 -104.414222 0.000012 -0.000001 -10.253702 302.158881 7.794127 -31.240411 -2.882600 -1.580092 6.695791 -2.674561 -8.384927 29.699944 -4.235613 0.000005 -0.000002 -1461.481149 -60.121688 -647.775961 -0.000000 0.000002 -10.709919 119.740388 -156.948117 148.583484 -0.000006 -0.000004 -11.716805 -881.000201 -3.808402 -42.984761 2.279488 0.210400 -2.475503 407.629924 -37.138747 6.797180 -0.000001 -0.000013 -20.742807 -383.742731 34.108657 -4.381743 -0.000002 0.000001 -16.666004 354.282486 27.088906 11.888097 -1.961897 0.232302 -2.727411 -1078.748931 -2.605015 8.542071 -0.000008 -0.000006 -20.526800 888.298886 152.660493 -184.736632 -0.000002 0.000004 -16.867300 7.292085 47.538048 -13.041996
59.480209 53.555000 45.278690 2022.435843 9.710424 10.679856 -0.637404 0.831602 5.390095 -5.417216 -0.768465 6.151197 0.000001 0.000003 4.429906 -1.076064 -1.257323 -0.101310 0.000000 0.000000 10.301406 415.124882 2.203689 -9.430941 -0.000005 -0.000009 2.173901 -357.181382 3.462087 3.898374 2.142392 -0.572694 5.717803 7.255222 -7.734224 -11.583835 5.673993 0.000000 -0.000004 -13.472162 -719.295308 278.486538 -0.000005 0.000006 -12.238705 -808.376275 32.574634 -103.611511 0.000010 0.000003 -10.253708 301.424881 7.874377 -31.261462 -2.882606 -1.580089 6.695799 -2.437041 -8.375233 29.478734 -4.235600 0.000002 -0.000010 -1460.999102 -59.529839 -648.098236 0.000005 0.000000 -10.709917 120.266613 -156.050999 148.746576 0.000004 -0.000007 -11.716803 -882.496559 -3.869611 -42.693569 2.279499 0.210413 -2.475505 411.301069 -38.065010 9.362440 -0.000002 -0.000013 -20.742794 -383.406495 34.161570 -5.329560 0.000003 0.000002 -16.666004 350.957960 27.985124 12.188917 -1.961893 0.232306 -2.727401 -1078.720408 -2.775383 7.834629 0.000005 -0.000003 -20.526804 888.681541 152.926488 -185.307977 0.000003 0.000004 -16.867300 4.099825 46.558985 -11.335854
59.837509 53.549099 45.250591 2023.116676 10.032417 10.798363 -0.637406 0.831598 5.390091 -5.286373 -0.348125 6.095907 -0.000008 -0.000003 4.429894 -1.142914 -1.436131 -0.254124 -0.000006 0.000004 10.301399 414.674991 2.262770 -9.214206 -0.000001 0.000004 2.173898 -357.239767 3.429421 3.863803 2.142394 -0.572699 5.717804 6.582667 -8.043797 -11.014241 5.674006 -0.000002 -0.000003 -13.640106 -719.211488 278.244039 0.000008 0.000007 -12.238705 -809.044049 32.646392 -102.638141 0.000002 -0.000001 -10.253698 301.200305 8.020184 -31.164869 -2.882607 -1.580096 6.695798 -2.892476 -6.961438 28.905610 -4.235608 0.000005 -0.000007 -1460.566450 -60.594092 -648.143534 0.000004 0.000000 -10.709902 119.801709 -156.162863 148.499159 -0.000008 0.000001 -11.716787 -883.437158 -3.947390 -43.125244 2.279493 0.210400 -2.475506 413.983831 -38.721872 11.425602 -0.000002 -0.000009 -20.742805 -383.035124 34.030297 -6.330824 -0.000006 0.000004 -16.666000 348.041797 28.743178 13.111954 -1.961897 0.232301 -2.727404 -1078.780623 -2.897544 7.102871 0.000006 0.000000 -20.526796 889.072173 153.251482 -185.812032 0.000001 -0.000004 -16.867298 1.383241 45.559510 -9.935463
60.207008 53.530396 45.215191 2023.745928 10.477766 10.839622 -0.637400 0.831597 5.390100 -5.223772 -0.152938 6.170546 -0.000004 -0.000002 4.429901 -1.134014 -1.581046 -0.225953 0.000018 -0.000010 10.301403 414.150050 2.197229 -9.183641 -0.000005 0.000002 2.173908 -357.166766 3.449606 3.792230 2.142413 -0.572707 5.717803 5.819863 -8.309834 -10.735119 5.674004 0.000005 -0.000011 -13.776953 -719.136793 278.106452 0.000001 0.000013 -12.238692 -809.883397 32.257590 -101.470130 0.000010 0.000010 -10.253708 300.439750 8.124256 -31.170303 -2.882586 -1.580101 6.695801 -3.471691 -6.842370 27.756810 -4.235611 0.000004 -0.000011 -1458.008025 -61.008718 -646.974861 0.000013 -0.000002 -10.709911 119.687126 -156.142837 148.524130 -0.000004 -0.000004 -11.716787 -883.544747 -3.726738 -41.956073 2.279495 0.210402 -2.475503 415.455545 -39.359597 12.879224 0.000000 -0.000006 -20.742805 -383.001109 33.837382 -6.763609 -0.000009 0.000004 -16.665997 346.466974 29.409521 14.025867 -1.961897 0.232299 -2.727396 -1079.505278 -3.440007 6.529314 -0.000002 0.000001 -20.526796 889.402536 153.221948 -186.044190 -0.000013 0.000004 -16.867296 -0.035196 44.546398 -8.810413
60.570114 53.516502 45.175495 2024.432881 10.903307 10.847873 -0.637408 0.831590 5.390096 -5.255695 0.047530 6.184805 0.000003 0.000003 4.429900 -1.189442 -1.609032 -0.135685 0.000004 -0.000010 10.301399 413.647348 2.161566 -9.018623 -0.000000 0.000010 2.173904 -357.039806 3.399465 3.663535 2.142398 -0.572705 5.717805 5.350888 -8.748686 -10.759001 5.674013 -0.000002 0.000003 -14.046364 -719.107724 278.282124 -0.000005 0.000005 -12.238699 -810.589475 32.184524 -100.564536 0.000006 0.000007 -10.253706 300.011087 8.229318 -31.161092 -2.882605 -1.580101 6.695793 -3.386605 -6.293538 27.295179 -4.235606 -0.000008 -0.000002 -1457.186982 -61.154058 -646.978194 -0.000003 0.000004 -10.709902 119.691593 -155.954993 148.470158 -0.000003 -0.000013 -11.716814 -884.473161 -3.608557 -41.469989 2.279490 0.210388 -2.475502 417.429361 -39.864396 14.656920 -0.000005 -0.000010 -20.742804 -381.953850 33.323523 -7.735912 -0.000001 -0.000002 -16.665997 343.629986 30.273236 14.777225 -1.961901 0.232292 -2.727400 -1079.626801 -3.671921 5.972323 -0.000000 -0.000009 -20.526802 889.725467 153.586844 -186.410329 -0.000017 -0.000002 -16.867298 -1.089891 43.513803 -8.638803
